<svg xmlns="http://www.w3.org/2000/svg" viewBox="0 0 97.5 85"><defs><style>.cls-1{fill:#c00;}.cls-2{fill:#fff;}</style></defs><title>Asset 5</title><g id="Layer_2" data-name="Layer 2"><g id="Layer_1-2" data-name="Layer 1"><rect class="cls-1" width="97.41" height="97.41"/><path class="cls-2" d="M19.79,48.7a7.42,7.42,0,0,1,7.42-7.42h5.63v-4.2H27.16a11.62,11.62,0,1,0,0,23.25H38.09a1.18,1.18,0,0,0,1.1-1.1V37.7A2.53,2.53,0,0,1,41,35.21a2.78,2.78,0,0,1,3.15,1.51L51,48.47l6.59,11.37c.34.59.81.86,1.26.74a.85.85,0,0,0,.61-.87v-22a2.53,2.53,0,0,1,1.85-2.49,2.77,2.77,0,0,1,3.14,1.51l6.32,10.89,7.09,12.23c.34.59.82.86,1.26.74a.85.85,0,0,0,.61-.87V31.2H75.55v17L68.19,35.5C63.72,27.91,55.27,31,55.27,37.58v10.6L47.91,35.5C43.44,27.91,35,31,35,37.58V54.94a1.16,1.16,0,0,1-1.16,1.18H27.21A7.42,7.42,0,0,1,19.79,48.7Z"/><path class="cls-2" d="M81.44,31.2V59.71a2.51,2.51,0,0,1-2.51,2.58,2.89,2.89,0,0,1-2.5-1.6l-7.1-12.23L63,37.57c-.34-.58-.81-.86-1.25-.74a.85.85,0,0,0-.61.87v22a2.53,2.53,0,0,1-1.85,2.49,2.78,2.78,0,0,1-3.16-1.51l-6.6-11.37L42.75,37.57c-.34-.58-.82-.86-1.26-.74a.86.86,0,0,0-.61.87V59.23A2.85,2.85,0,0,1,38.09,62H27.16a13.3,13.3,0,1,1,0-26.61h5.68V31.2H27.17a17.51,17.51,0,0,0,0,35h11c4.19,0,6.89-2.46,6.89-7v-10l7.36,12.67c4.47,7.59,12.91,4.45,12.91-2.08V49.24l7.36,12.67c4.47,7.59,12.91,4.45,12.91-2.08V31.2Z"/><path class="cls-2" d="M139,23.31h8.95c2.38,0,6.12.85,6.12,5.89,0,3.68-2.41,5.77-6.59,5.77h-7.18v9.36H139Zm1.29,10.54h7.39c3.79,0,5.09-2.5,5.09-4.68,0-1.56-.71-4.74-4.91-4.74h-7.56Z"/><path class="cls-2" d="M133.21,29.61c-.56-3.53-3.65-5.65-7.15-5.65-5.5,0-8.71,4.5-8.71,9.89s3.21,9.89,8.71,9.89c4.09,0,7.27-3.65,7.5-7.56h1.3c-.47,5-4.18,8.68-8.8,8.68-6.3,0-10-4.86-10-11s3.71-11,10-11c7.45,0,8.42,6.48,8.45,6.77Z"/><path class="cls-2" d="M173.29,43.23v1.12H159v-21h14.13v1.12H160.31v8.42h12.06V34H160.31v9.24Z"/><path class="cls-2" d="M185.8,23.34l8.3,21h-1.38l-2.65-6.74H180l-2.68,6.74h-1.38l8.45-21Zm3.86,13.15-4.5-11.89h-.06L180.41,36.5Z"/><path class="cls-2" d="M192.34,24.46V23.34h16.1v1.12H201V44.35h-1.3V24.46Z"/><path class="cls-2" d="M212.68,23.34H214v21h-1.29Z"/><path class="cls-2" d="M226.93,43.23H227l7.27-19.89h1.3l-7.86,21h-1.5l-7.83-21h1.35Z"/><path class="cls-2" d="M253.73,43.23v1.12H239.46v-21h14.13v1.12H240.75v8.42h12.07V34H240.75v9.24Z"/><polygon class="cls-2" points="146.75 34.08 145.62 34.58 153.79 44.35 155.28 44.35 146.75 34.08"/><path class="cls-2" d="M285.41,59.33c-.56-3.53-3.65-5.65-7.15-5.65-5.5,0-8.71,4.5-8.71,9.89s3.21,9.89,8.71,9.89c4.09,0,7.27-3.65,7.5-7.57h1.29c-.47,5-4.18,8.69-8.8,8.69-6.3,0-10-4.86-10-11s3.71-11,10-11c7.45,0,8.42,6.47,8.45,6.77Z"/><rect class="cls-2" x="278.38" y="64.79" width="8.69" height="1.11"/><path class="cls-2" d="M117.05,53.06h1.86l8.2,12.85.07-.12,8.12-12.73h1.85v21h-1.29V54.65h-.06l-8,12.7h-1.29l-8.08-12.7h-.06V74.07h-1.3Z"/><path class="cls-2" d="M151.15,53.06l8.3,21h-1.38l-2.65-6.74H145.35l-2.68,6.74h-1.38l8.45-21ZM155,66.21l-4.5-11.89h-.06l-4.68,11.89Z"/><path class="cls-2" d="M183.8,53.06h1.29v12.1l13.21-12.1H200L190.4,61.8l10.18,12.27H199l-9.51-11.39-4.36,4v7.42H183.8Z"/><path class="cls-2" d="M218.2,73v1.12H203.93v-21h14.12v1.12H205.22v8.42h12.07v1.12H205.22V73Z"/><path class="cls-2" d="M221.38,54.18V53.06h16.1v1.12h-7.42V74.07h-1.3V54.18Z"/><path class="cls-2" d="M241.73,53.06H243v21h-1.29Z"/><path class="cls-2" d="M248.2,53.06h1.62l13.27,19.28h.06V53.06h1.29v21h-1.53L249.56,54.65h-.06V74.07h-1.3Z"/><path class="cls-2" d="M163.22,53h8.95c2.39,0,6.12.85,6.12,5.89,0,3.68-2.41,5.77-6.59,5.77h-7.18V74h-1.3Zm1.3,10.54h7.38c3.8,0,5.09-2.5,5.09-4.68,0-1.56-.71-4.74-4.91-4.74h-7.56Z"/><polygon class="cls-2" points="170.98 63.8 169.86 64.3 178.02 74.07 179.51 74.07 170.98 63.8"/></g></g></svg>